<mxfile host="Electron" agent="Mozilla/5.0 (Windows NT 10.0; Win64; x64) AppleWebKit/537.36 (KHTML, like Gecko) draw.io/27.0.9 Chrome/134.0.6998.205 Electron/35.4.0 Safari/537.36" version="27.0.9">
  <diagram name="Page-1" id="6wbF8xlFhSbcq2coqdoF">
    <mxGraphModel dx="1042" dy="626" grid="1" gridSize="10" guides="1" tooltips="1" connect="1" arrows="1" fold="1" page="1" pageScale="1" pageWidth="850" pageHeight="1100" math="0" shadow="0">
      <root>
        <mxCell id="0" />
        <mxCell id="1" parent="0" />
        <mxCell id="z01m0JjgbirTVHGVJnU0-1" value="" style="endArrow=none;dashed=1;html=1;dashPattern=1 3;strokeWidth=2;rounded=0;strokeColor=#999999;" parent="1" edge="1">
          <mxGeometry width="50" height="50" relative="1" as="geometry">
            <mxPoint x="160" y="400" as="sourcePoint" />
            <mxPoint x="160" y="40" as="targetPoint" />
          </mxGeometry>
        </mxCell>
        <mxCell id="z01m0JjgbirTVHGVJnU0-2" value="" style="endArrow=none;dashed=1;html=1;dashPattern=1 3;strokeWidth=2;rounded=0;strokeColor=#999999;" parent="1" edge="1">
          <mxGeometry width="50" height="50" relative="1" as="geometry">
            <mxPoint x="320" y="400" as="sourcePoint" />
            <mxPoint x="320" y="40" as="targetPoint" />
          </mxGeometry>
        </mxCell>
        <mxCell id="z01m0JjgbirTVHGVJnU0-3" value="" style="endArrow=none;dashed=1;html=1;dashPattern=1 3;strokeWidth=2;rounded=0;strokeColor=#999999;" parent="1" edge="1">
          <mxGeometry width="50" height="50" relative="1" as="geometry">
            <mxPoint x="480" y="400" as="sourcePoint" />
            <mxPoint x="480" y="40" as="targetPoint" />
          </mxGeometry>
        </mxCell>
        <mxCell id="z01m0JjgbirTVHGVJnU0-4" value="" style="endArrow=none;dashed=1;html=1;dashPattern=1 3;strokeWidth=2;rounded=0;strokeColor=#999999;" parent="1" edge="1">
          <mxGeometry width="50" height="50" relative="1" as="geometry">
            <mxPoint x="640" y="400" as="sourcePoint" />
            <mxPoint x="640" y="40" as="targetPoint" />
          </mxGeometry>
        </mxCell>
        <mxCell id="z01m0JjgbirTVHGVJnU0-5" value="" style="endArrow=none;html=1;rounded=0;strokeWidth=2;" parent="1" edge="1">
          <mxGeometry width="50" height="50" relative="1" as="geometry">
            <mxPoint x="120" y="120" as="sourcePoint" />
            <mxPoint x="640" y="120" as="targetPoint" />
            <Array as="points">
              <mxPoint x="160" y="120" />
              <mxPoint x="160" y="80" />
              <mxPoint x="200" y="80" />
              <mxPoint x="200" y="120" />
              <mxPoint x="320" y="120" />
              <mxPoint x="320" y="80" />
              <mxPoint x="360" y="80" />
              <mxPoint x="360" y="120" />
              <mxPoint x="480" y="120" />
              <mxPoint x="480" y="80" />
              <mxPoint x="520" y="80" />
              <mxPoint x="520" y="120" />
            </Array>
          </mxGeometry>
        </mxCell>
        <mxCell id="z01m0JjgbirTVHGVJnU0-7" value="" style="endArrow=none;html=1;rounded=0;strokeWidth=2;" parent="1" edge="1">
          <mxGeometry width="50" height="50" relative="1" as="geometry">
            <mxPoint x="120" y="200" as="sourcePoint" />
            <mxPoint x="640" y="200" as="targetPoint" />
            <Array as="points">
              <mxPoint x="160" y="200" />
              <mxPoint x="200" y="320" />
              <mxPoint x="280" y="200" />
              <mxPoint x="320" y="200" />
              <mxPoint x="360" y="320" />
              <mxPoint x="440" y="200" />
              <mxPoint x="480" y="200" />
              <mxPoint x="520" y="320" />
              <mxPoint x="600" y="200" />
            </Array>
          </mxGeometry>
        </mxCell>
        <mxCell id="z01m0JjgbirTVHGVJnU0-9" value="" style="endArrow=none;html=1;rounded=0;dashed=1;" parent="1" edge="1">
          <mxGeometry width="50" height="50" relative="1" as="geometry">
            <mxPoint x="110" y="320" as="sourcePoint" />
            <mxPoint x="650" y="320" as="targetPoint" />
          </mxGeometry>
        </mxCell>
        <mxCell id="z01m0JjgbirTVHGVJnU0-10" value="" style="endArrow=none;dashed=1;html=1;dashPattern=1 3;strokeWidth=2;rounded=0;strokeColor=#999999;" parent="1" edge="1">
          <mxGeometry width="50" height="50" relative="1" as="geometry">
            <mxPoint x="200" y="400" as="sourcePoint" />
            <mxPoint x="200" y="40" as="targetPoint" />
          </mxGeometry>
        </mxCell>
        <mxCell id="z01m0JjgbirTVHGVJnU0-12" value="" style="endArrow=classic;startArrow=classic;html=1;rounded=0;" parent="1" edge="1">
          <mxGeometry width="50" height="50" relative="1" as="geometry">
            <mxPoint x="160" y="370" as="sourcePoint" />
            <mxPoint x="200" y="370" as="targetPoint" />
          </mxGeometry>
        </mxCell>
        <mxCell id="z01m0JjgbirTVHGVJnU0-14" value="&lt;font style=&quot;font-size: 14px;&quot;&gt;T&lt;sub&gt;l&lt;/sub&gt;&lt;/font&gt;" style="edgeLabel;html=1;align=center;verticalAlign=middle;resizable=0;points=[];labelBackgroundColor=none;" parent="z01m0JjgbirTVHGVJnU0-12" vertex="1" connectable="0">
          <mxGeometry x="0.15" y="-2" relative="1" as="geometry">
            <mxPoint x="-4" y="-12" as="offset" />
          </mxGeometry>
        </mxCell>
        <mxCell id="z01m0JjgbirTVHGVJnU0-13" value="" style="endArrow=classic;startArrow=classic;html=1;rounded=0;" parent="1" edge="1">
          <mxGeometry width="50" height="50" relative="1" as="geometry">
            <mxPoint x="160" y="400" as="sourcePoint" />
            <mxPoint x="320" y="400" as="targetPoint" />
          </mxGeometry>
        </mxCell>
        <mxCell id="z01m0JjgbirTVHGVJnU0-16" value="&lt;font style=&quot;font-size: 14px;&quot;&gt;T&lt;sub&gt;o&lt;/sub&gt;&lt;/font&gt;" style="edgeLabel;html=1;align=center;verticalAlign=middle;resizable=0;points=[];labelBackgroundColor=none;" parent="z01m0JjgbirTVHGVJnU0-13" vertex="1" connectable="0">
          <mxGeometry x="0.0025" relative="1" as="geometry">
            <mxPoint y="-10" as="offset" />
          </mxGeometry>
        </mxCell>
        <mxCell id="z01m0JjgbirTVHGVJnU0-17" value="&lt;font style=&quot;font-size: 16px;&quot;&gt;PWM&lt;sub&gt;L&lt;/sub&gt;&lt;/font&gt;" style="text;html=1;align=center;verticalAlign=middle;resizable=0;points=[];autosize=1;strokeColor=none;fillColor=none;" parent="1" vertex="1">
          <mxGeometry x="50" y="80" width="70" height="40" as="geometry" />
        </mxCell>
        <mxCell id="z01m0JjgbirTVHGVJnU0-20" value="" style="endArrow=none;html=1;rounded=0;dashed=1;" parent="1" edge="1">
          <mxGeometry width="50" height="50" relative="1" as="geometry">
            <mxPoint x="110" y="200" as="sourcePoint" />
            <mxPoint x="650" y="200" as="targetPoint" />
          </mxGeometry>
        </mxCell>
        <mxCell id="z01m0JjgbirTVHGVJnU0-22" value="&lt;font style=&quot;font-size: 16px;&quot;&gt;I&lt;sub&gt;MIN&lt;/sub&gt;&lt;/font&gt;" style="text;html=1;align=center;verticalAlign=middle;resizable=0;points=[];autosize=1;strokeColor=none;fillColor=none;" parent="1" vertex="1">
          <mxGeometry x="55" y="300" width="50" height="40" as="geometry" />
        </mxCell>
        <mxCell id="z01m0JjgbirTVHGVJnU0-23" value="&lt;font style=&quot;font-size: 16px;&quot;&gt;0&lt;/font&gt;" style="text;html=1;align=center;verticalAlign=middle;resizable=0;points=[];autosize=1;strokeColor=none;fillColor=none;" parent="1" vertex="1">
          <mxGeometry x="60" y="180" width="30" height="30" as="geometry" />
        </mxCell>
        <mxCell id="QfKanZatKuIfaZDUhqj9-1" value="" style="endArrow=classic;startArrow=classic;html=1;rounded=0;" parent="1" edge="1">
          <mxGeometry width="50" height="50" relative="1" as="geometry">
            <mxPoint x="200" y="370" as="sourcePoint" />
            <mxPoint x="280" y="370" as="targetPoint" />
          </mxGeometry>
        </mxCell>
        <mxCell id="QfKanZatKuIfaZDUhqj9-2" value="&lt;font style=&quot;font-size: 14px;&quot;&gt;T&lt;sub&gt;d&lt;/sub&gt;&lt;/font&gt;" style="edgeLabel;html=1;align=center;verticalAlign=middle;resizable=0;points=[];labelBackgroundColor=none;" parent="QfKanZatKuIfaZDUhqj9-1" vertex="1" connectable="0">
          <mxGeometry x="0.15" y="-2" relative="1" as="geometry">
            <mxPoint x="-4" y="-12" as="offset" />
          </mxGeometry>
        </mxCell>
        <mxCell id="QfKanZatKuIfaZDUhqj9-5" value="" style="endArrow=none;dashed=1;html=1;dashPattern=1 3;strokeWidth=2;rounded=0;strokeColor=#999999;" parent="1" edge="1">
          <mxGeometry width="50" height="50" relative="1" as="geometry">
            <mxPoint x="280" y="400" as="sourcePoint" />
            <mxPoint x="280" y="40" as="targetPoint" />
          </mxGeometry>
        </mxCell>
      </root>
    </mxGraphModel>
  </diagram>
</mxfile>
